<?xml version="1.0" encoding="UTF-8"?>
<svg xmlns="http://www.w3.org/2000/svg" viewBox="0 0 1920 1080">
  <defs>
    <style>
      .cls-1 {
        fill: #ff0;
        stroke: #ff0;
      }

      .cls-1, .cls-2, .cls-3, .cls-4, .cls-5, .cls-6, .cls-7 {
        stroke-miterlimit: 10;
      }

      .cls-2 {
        fill: none;
        stroke: #333;
        stroke-width: 18px;
      }

      .cls-8 {
        fill: #534741;
      }

      .cls-3 {
        fill: #1a1a1a;
        stroke: #1a1a1a;
      }

      .cls-4 {
        fill: #f0f;
        stroke: #f0f;
      }

      .cls-5 {
        fill: blue;
        stroke: blue;
      }

      .cls-6 {
        fill: red;
        stroke: red;
      }

      .cls-7 {
        fill: lime;
        stroke: lime;
      }

      .cls-9 {
        fill: #333;
      }

      .cls-10 {
        fill: #999;
      }
    </style>
  </defs>
  <g id="Layer_2" data-name="Layer 2">
    <path class="cls-10" d="M1920,1080H0V0h1920v1080ZM1890,858.55V59.45c0-17.92-14.53-32.45-32.45-32.45H68.45c-17.92,0-32.45,14.53-32.45,32.45v799.1c0,17.92,14.53,32.45,32.45,32.45h1789.1c17.92,0,32.45-14.53,32.45-32.45Z"/>
  </g>
  <g id="Layer_3" data-name="Layer 3">
    <rect class="cls-8" x="54" y="918" width="297" height="153" rx="13.39" ry="13.39"/>
    <rect class="cls-9" x="396" y="918" width="38.14" height="153" rx="19.07" ry="19.07"/>
    <rect class="cls-9" x="451.87" y="917.54" width="38.14" height="153" rx="19.07" ry="19.07"/>
    <rect class="cls-9" x="505.87" y="917.54" width="38.14" height="153" rx="19.07" ry="19.07"/>
    <rect class="cls-2" x="27" y="18" width="1872" height="882" rx="46.44" ry="46.44"/>
    <rect class="cls-3" x="585.5" y="926" width="270" height="126.5"/>
    <rect class="cls-5" x="657.5" y="944.5" width="36" height="36"/>
    <rect class="cls-6" x="612.5" y="944.5" width="36" height="36"/>
    <rect class="cls-1" x="701.5" y="944.5" width="36" height="36"/>
    <rect class="cls-4" x="747.5" y="944.5" width="36" height="36"/>
    <rect class="cls-7" x="792.5" y="944.5" width="36" height="36"/>
    <rect class="cls-5" x="657.5" y="998.5" width="36" height="36"/>
    <rect class="cls-6" x="612.5" y="998.5" width="36" height="36"/>
    <rect class="cls-1" x="701.5" y="998.5" width="36" height="36"/>
    <rect class="cls-4" x="747.5" y="998.5" width="36" height="36"/>
    <rect class="cls-7" x="792.5" y="998.5" width="36" height="36"/>
    <rect class="cls-9" x="890.8" y="918.21" width="38.14" height="153" rx="19.07" ry="19.07"/>
    <rect class="cls-9" x="946.67" y="917.75" width="38.14" height="153" rx="19.07" ry="19.07"/>
    <rect class="cls-9" x="1000.67" y="917.75" width="38.14" height="153" rx="19.07" ry="19.07"/>
    <rect class="cls-8" x="1071" y="918" width="297" height="153" rx="13.39" ry="13.39"/>
    <rect class="cls-9" x="1394.76" y="918.22" width="38.14" height="153" rx="19.07" ry="19.07"/>
    <rect class="cls-9" x="1450.63" y="917.76" width="38.14" height="153" rx="19.07" ry="19.07"/>
    <rect class="cls-9" x="1504.63" y="917.76" width="38.14" height="153" rx="19.07" ry="19.07"/>
    <rect class="cls-8" x="1566" y="918" width="297" height="153" rx="13.39" ry="13.39"/>
  </g>
</svg>