<?xml version="1.0" encoding="UTF-8"?>
<svg id="Layer_1" data-name="Layer 1" xmlns="http://www.w3.org/2000/svg" viewBox="0 0 321 91">
  <defs>
    <style>
      .cls-1 {
        fill: blue;
      }
    </style>
  </defs>
  <path class="cls-1" d="M160.5,90.5C72.28,90.5.5,70.31.5,45.5S72.28.5,160.5.5s160,20.19,160,45-71.78,45-160,45Z"/>
  <path d="M160.5,1c42.78,0,82.99,4.72,113.22,13.29,29.41,8.34,46.28,19.71,46.28,31.21s-16.87,22.87-46.28,31.21c-30.23,8.57-70.44,13.29-113.22,13.29s-82.99-4.72-113.22-13.29C17.87,68.37,1,57,1,45.5S17.87,22.63,47.28,14.29C77.51,5.72,117.72,1,160.5,1M160.5,0C71.86,0,0,20.37,0,45.5s71.86,45.5,160.5,45.5,160.5-20.37,160.5-45.5S249.14,0,160.5,0h0Z"/>
</svg>