<?xml version="1.0" encoding="UTF-8"?>
<svg xmlns="http://www.w3.org/2000/svg" viewBox="0 0 637.95 318.42">
  <defs>
    <style>
      .cls-1 {
        fill: #f15a24;
      }

      .cls-2 {
        fill: #603813;
      }

      .cls-3 {
        fill: #fcee21;
      }

      .cls-4 {
        fill: #f7931e;
      }

      .cls-5 {
        fill: #42210b;
      }
    </style>
  </defs>
  <g id="Layer_2" data-name="Layer 2">
    <path class="cls-3" d="M168,136c.45-7.21,24.25-11.61,48-16,11.66-2.16,25.16-4.65,43-5,31.29-.61,52.2,5.84,78,12,0,0,11.93,2.85,91,16,128.58,21.39,189.1-3.48,206,29,7.98,15.35,3.13,37.54-8,46-16.19,12.31-41.17-7.84-101-21-28.73-6.32-21.26-1.3-67-9-76.03-12.8-85.06-24.72-122-20-21.7,2.77-29.08,8.22-52,7-5.44-.29-16.69-1.22-57-14-39.59-12.55-59.38-18.95-59-25Z"/>
    <path class="cls-3" d="M577,280c7.49,1.56,40.45,8.41,40,14-.24,3.04-10.27,4.74-30,7-39.5,4.52-69.83,5.77-75,6-60,2.64-52.87,13.69-88,11-17.46-1.34-40.64-8.22-87-22-11.34-3.37-27.07-4.29-45-14-13.22-7.16-33.7-21.56-31-30,.79-2.48,4.9-8.55,40-7,56.39,2.49,73.76,19.38,118,28,59.96,11.68,78.57-9.52,158,7Z"/>
  </g>
  <g id="Layer_3" data-name="Layer 3">
    <path class="cls-4" d="M239,178c-.21-12.24,30.95-23.81,55-28,30.48-5.31,50.01,1.13,90,10,46.34,10.28,93.39,17.04,140,26,6.24,1.2,42.17,8.36,83,29,26.32,13.3,28.5,18.97,28,22-1.82,11.14-44.02,12.7-52,13-40.24,1.49-59.24-6.63-116-19-69.94-15.24-104.91-22.85-130-22-5.53.19-26.82,1.09-53-6-9.93-2.69-44.77-12.13-45-25Z"/>
    <path class="cls-4" d="M251,229c1.08-10.95,39.1-15.74,57-18,12.7-1.6,32.93-4,59,0,23.55,3.62,29.16,8.97,63,20,21.9,7.13,45.24,14.74,75,19,30.68,4.39,47.16,2.22,86,11,24.5,5.54,32.94,9.79,33,14,.08,5.47-13.98,9.77-18,11-25.33,7.75-46.26,2.09-64-1-26.83-4.68-17.21,1.58-77-2-8.81-.53-41.76-2.63-85-9-29.27-4.32-44.96-6.69-66-13-14.86-4.45-64.26-19.26-63-32Z"/>
  </g>
  <g id="Layer_4" data-name="Layer 4">
    <path class="cls-1" d="M246,202c.12-10.52,42.26-21.01,79-22,35.19-.95,45.54,7.34,108,23,52.26,13.1,137.47,30.47,145,32,30.71,6.24,57.07,11.22,57,18-.06,5.84-19.69,10.06-29,12-43.53,9.08-81.76,4.09-124-4-76.59-14.67-60.95-18.6-98-23-25.63-3.04-63-5.1-111-21-20.57-6.81-27.05-10.85-27-15Z"/>
  </g>
  <g id="Layer_1" data-name="Layer 1">
    <path class="cls-5" d="M91,145c7.54-15.03,26.2-21.99,29-23,10.26-3.68,14.63-1.63,23-7,9.54-6.12,8.34-11.65,17-18,12.89-9.45,29.27-7.26,31-7,17.11,2.54,17.76,14.13,35,17,13.31,2.21,15.23-4.32,30-2,3.47.54,24.86,4.28,30,18,4.03,10.74-5.32,18.46,0,27,3.8,6.09,9.49,3.66,18,10,10.32,7.69,18.19,23.38,14,34-3.75,9.49-14.12,7.3-19,18-4.25,9.31,2.47,13.47,0,26-1.26,6.4-7.86,14.36-21,30-14.47,17.23-18.06,19.5-21,21-8.93,4.55-17.43,4.79-25,5-19.23.54-22.96-5.78-33-2-10.25,3.86-7.74,10.95-20,17-1.88.93-17.4,8.29-32,1-4.08-2.04-5.12-3.74-10-8-18.93-16.53-30.25-13.73-44-28-5.25-5.45-7.83-10.24-12-18-6.98-12.99-14.71-27.35-11-41,3.3-12.15,11.86-9.79,18-23,8.73-18.77-5.64-29.79,3-47Z"/>
    <ellipse class="cls-2" cx="258" cy="121" rx="14" ry="26" transform="translate(81.58 344.79) rotate(-76.88)"/>
    <ellipse class="cls-2" cx="254.5" cy="245" rx="40.5" ry="15" transform="translate(-85.06 147.56) rotate(-27.9)"/>
    <ellipse class="cls-2" cx="119.5" cy="252.5" rx="18.5" ry="44.5" transform="translate(-147.55 170.51) rotate(-47.61)"/>
    <ellipse class="cls-2" cx="189.5" cy="197" rx="35.5" ry="22" transform="translate(-48.77 63.04) rotate(-16.77)"/>
    <ellipse class="cls-2" cx="119.61" cy="144.96" rx="29.7" ry="13" transform="translate(-60.56 91.51) rotate(-33.95)"/>
  </g>
</svg>